<svg viewBox="0 0 9 9" fill="none" xmlns="http://www.w3.org/2000/svg">
<path d="M5.18465 4.5L8.83675 0.8315C9.03237 0.635882 9.03237 0.326092 8.83675 0.146714C8.64114 -0.0489046 8.33136 -0.0489046 8.15198 0.146714L4.49988 3.81521L0.831479 0.146714C0.635866 -0.0489046 0.326083 -0.0489046 0.14671 0.146714C-0.0489033 0.342332 -0.0489033 0.652122 0.14671 0.8315L3.79881 4.5L0.14671 8.1685C-0.0489033 8.36412 -0.0489033 8.67391 0.14671 8.85329C0.244517 8.95109 0.37496 9 0.489152 9C0.603345 9 0.733666 8.95109 0.831595 8.85329L4.5 5.18479L8.1684 8.85329C8.26621 8.95109 8.39666 9 8.51085 9C8.62504 9 8.75536 8.95109 8.85329 8.85329C9.0489 8.65767 9.0489 8.34788 8.85329 8.1685L5.18465 4.5Z" fill="white"/>
</svg>
