<svg width="70px" height="70px" viewBox="0 0 1024 1024" version="1.1" xmlns="http://www.w3.org/2000/svg" xmlns:xlink="http://www.w3.org/1999/xlink" xml:space="preserve" xmlns:serif="http://www.serif.com/" style="fill-rule:evenodd;clip-rule:evenodd;stroke-linejoin:round;stroke-miterlimit:2;">
    <g id="gallery-info" serif:id="gallery info" transform="matrix(1,0,0,0.515625,266.183,232.513)">
        <g transform="matrix(5.27625,0,0,3.5158,-431.209,-126.011)">
            <path d="M225.354,64.243C225.354,42.932 219.409,25.629 212.087,25.629L44.544,25.629C37.222,25.629 31.277,42.932 31.277,64.243L31.277,315.783C31.277,337.094 37.222,354.396 44.544,354.396L212.087,354.396C219.409,354.396 225.354,337.094 225.354,315.783L225.354,64.243Z"/>
        </g>
        <g transform="matrix(5.27625,0,0,0.884849,-431.209,-473.612)">
            <path d="M225.354,179.054C225.354,94.377 219.409,25.629 212.087,25.629L44.544,25.629C37.222,25.629 31.277,94.377 31.277,179.054L31.277,244.807C31.277,305.291 35.523,354.396 40.753,354.396L215.878,354.396C221.108,354.396 225.354,305.291 225.354,244.807L225.354,179.054Z"/>
        </g>
        <g transform="matrix(5.27625,0,0,0.884849,-431.209,1221.42)">
            <path d="M225.354,135.218C225.354,74.735 221.108,25.629 215.878,25.629L40.753,25.629C35.523,25.629 31.277,74.735 31.277,135.218L31.277,200.972C31.277,285.649 37.222,354.396 44.544,354.396L212.087,354.396C219.409,354.396 225.354,285.649 225.354,200.972L225.354,135.218Z"/>
        </g>
    </g>
</svg>
