<svg width="70px" height="70px" viewBox="0 0 1024 1024" version="1.1" xmlns="http://www.w3.org/2000/svg" xmlns:xlink="http://www.w3.org/1999/xlink" xml:space="preserve" xmlns:serif="http://www.serif.com/" style="fill-rule:evenodd;clip-rule:evenodd;stroke-linejoin:round;stroke-miterlimit:2;">
    <g id="Profile-gallery" serif:id="Profile gallery" transform="matrix(1,0,0,1,266.183,-14.5211)">
        <g transform="matrix(2.47324,0,0,2.06833,-343.539,-38.489)">
            <path d="M225.354,59.473C225.354,40.794 212.672,25.629 197.051,25.629L59.58,25.629C43.959,25.629 31.277,40.794 31.277,59.473L31.277,320.553C31.277,339.231 43.959,354.396 59.58,354.396L197.051,354.396C212.672,354.396 225.354,339.231 225.354,320.553L225.354,59.473Z"/>
        </g>
        <g transform="matrix(2.47324,0,0,0.851667,-343.539,736.693)">
            <path d="M225.354,107.821C225.354,62.458 212.672,25.629 197.051,25.629L59.58,25.629C43.959,25.629 31.277,62.458 31.277,107.821L31.277,272.205C31.277,317.567 43.959,354.396 59.58,354.396L197.051,354.396C212.672,354.396 225.354,317.567 225.354,272.205L225.354,107.821Z"/>
        </g>
        <g transform="matrix(2.47324,0,0,3.11467,200.461,-65.3058)">
            <path d="M225.354,48.104C225.354,35.7 212.672,25.629 197.051,25.629L59.58,25.629C43.959,25.629 31.277,35.7 31.277,48.104L31.277,331.922C31.277,344.326 43.959,354.396 59.58,354.396L197.051,354.396C212.672,354.396 225.354,344.326 225.354,331.922L225.354,48.104Z"/>
        </g>
    </g>
</svg>
