<svg width="70px" height="70px" viewBox="0 0 1024 1024" version="1.1" xmlns="http://www.w3.org/2000/svg" xmlns:xlink="http://www.w3.org/1999/xlink" xml:space="preserve" xmlns:serif="http://www.serif.com/" style="fill-rule:evenodd;clip-rule:evenodd;stroke-linejoin:round;stroke-miterlimit:2;">
    <g id="Profile-gallery" serif:id="Profile gallery" transform="matrix(1,0,0,1,266.183,-14.5211)">
        <g transform="matrix(2.47324,0,0,1.46,-343.539,-22.8978)">
            <path d="M225.354,73.575C225.354,47.113 212.672,25.629 197.051,25.629L59.58,25.629C43.959,25.629 31.277,47.113 31.277,73.575L31.277,306.451C31.277,332.913 43.959,354.396 59.58,354.396L197.051,354.396C212.672,354.396 225.354,332.913 225.354,306.451L225.354,73.575Z"/>
        </g>
        <g transform="matrix(2.47324,0,0,1.46,-343.539,521.102)">
            <path d="M225.354,73.575C225.354,47.113 212.672,25.629 197.051,25.629L59.58,25.629C43.959,25.629 31.277,47.113 31.277,73.575L31.277,306.451C31.277,332.913 43.959,354.396 59.58,354.396L197.051,354.396C212.672,354.396 225.354,332.913 225.354,306.451L225.354,73.575Z"/>
        </g>
        <g transform="matrix(2.47324,0,0,1.46,200.461,521.102)">
            <path d="M225.354,73.575C225.354,47.113 212.672,25.629 197.051,25.629L59.58,25.629C43.959,25.629 31.277,47.113 31.277,73.575L31.277,306.451C31.277,332.913 43.959,354.396 59.58,354.396L197.051,354.396C212.672,354.396 225.354,332.913 225.354,306.451L225.354,73.575Z"/>
        </g>
        <g transform="matrix(2.47324,0,0,1.46,200.461,-22.8978)">
            <path d="M225.354,73.575C225.354,47.113 212.672,25.629 197.051,25.629L59.58,25.629C43.959,25.629 31.277,47.113 31.277,73.575L31.277,306.451C31.277,332.913 43.959,354.396 59.58,354.396L197.051,354.396C212.672,354.396 225.354,332.913 225.354,306.451L225.354,73.575Z"/>
        </g>
    </g>
</svg>
