<svg width="20" height="20" viewBox="0 0 1024 1024" version="1.1" xmlns="http://www.w3.org/2000/svg" xmlns:xlink="http://www.w3.org/1999/xlink" xml:space="preserve" xmlns:serif="http://www.serif.com/" style="fill-rule:evenodd;clip-rule:evenodd;stroke-linejoin:round;stroke-miterlimit:2;">
    <g>
        <path d="M674.771,113L654.013,58.648C651.794,52.838 646.219,49 640,49L384,49C377.781,49 372.206,52.838 369.987,58.648L349.229,113L192,113C186.318,113 181.124,116.21 178.584,121.292L146.584,185.292C144.259,189.942 144.507,195.464 147.24,199.886C149.973,204.308 154.801,207 160,207L178.198,207L241.052,961.246C241.7,969.02 248.199,975 256,975L768,975C775.801,975 782.3,969.02 782.948,961.246L845.802,207L864,207C869.199,207 874.027,204.308 876.76,199.886C879.493,195.464 879.741,189.942 877.416,185.292L845.416,121.292C842.876,116.21 837.682,113 832,113L674.771,113ZM815.698,207L208.302,207L269.802,945C269.802,945 754.198,945 754.198,945C754.198,945 815.698,207 815.698,207ZM201.271,143L822.729,143C822.729,143 839.729,177 839.729,177L184.27,177L201.271,143ZM381.342,113L394.328,79C394.328,79 629.672,79 629.672,79L642.658,113L381.342,113Z"/>
        <path d="M175.544,200.114L178.198,207" style="fill:none;"/>
        <path d="M208.302,207C208.302,207 208.302,207 208.302,207L208.302,207Z"/>
        <path d="M663.979,143.141L662.919,143L666.2,143L663.979,143.141Z"/>
        <path d="M497,256L497,896C497,904.279 503.721,911 512,911C520.279,911 527,904.279 527,896L527,256C527,247.721 520.279,241 512,241C503.721,241 497,247.721 497,256Z"/>
        <g transform="matrix(1,0,0,1,160,0)">
            <path d="M497,256L497,896C497,904.279 503.721,911 512,911C520.279,911 527,904.279 527,896L527,256C527,247.721 520.279,241 512,241C503.721,241 497,247.721 497,256Z"/>
        </g>
        <path d="M337,256L337,896C337,904.279 343.721,911 352,911C360.279,911 367,904.279 367,896L367,256C367,247.721 360.279,241 352,241C343.721,241 337,247.721 337,256Z"/>
    </g>
</svg>
