<?xml version="1.0" encoding="UTF-8" standalone="no"?>
<!DOCTYPE svg PUBLIC "-//W3C//DTD SVG 1.1//EN" "http://www.w3.org/Graphics/SVG/1.1/DTD/svg11.dtd">
<svg width="100%" height="100%" viewBox="0 0 1024 1024" version="1.1" xmlns="http://www.w3.org/2000/svg" xmlns:xlink="http://www.w3.org/1999/xlink" xml:space="preserve" xmlns:serif="http://www.serif.com/" style="fill-rule:evenodd;clip-rule:evenodd;stroke-linejoin:round;stroke-miterlimit:2;">
    <g id="Layer6" transform="matrix(0.958701,0,0,0.958701,3.4287,2.73909)">
        <g transform="matrix(1.2666,0,0,1.25501,-149.253,-66.4337)">
            <path d="M863.812,374.198L637.874,148.26L171.72,614.414L397.658,840.352L863.812,374.198Z" style="fill:rgb(200,200,200);"/>
        </g>
        <g transform="matrix(1.2666,0,0,1.25501,-149.253,-66.4337)">
            <path d="M946.475,288.423C962.704,272.194 962.164,245.302 945.269,228.407L780.553,63.691C763.658,46.796 736.766,46.256 720.537,62.485L653.786,130.311L880.036,355.933L946.475,288.423Z" style="fill:rgb(200,200,200);"/>
        </g>
        <g transform="matrix(1.2666,0,0,1.25501,-149.253,-66.4337)">
            <path d="M381.668,859.872L155.73,633.934C155.73,633.934 123.272,840.055 115.118,891.832C114.691,894.547 115.591,897.301 117.539,899.239C119.487,901.177 122.246,902.064 124.958,901.623C176.576,893.228 381.668,859.872 381.668,859.872Z" style="fill:rgb(200,200,200);"/>
        </g>
    </g>
</svg>
